<?xml version="1.0" standalone="no"?><!DOCTYPE svg PUBLIC "-//W3C//DTD SVG 1.1//EN" "http://www.w3.org/Graphics/SVG/1.1/DTD/svg11.dtd"><svg width="32" height="32" viewBox="0 0 32 32" version="1.1" xmlns="http://www.w3.org/2000/svg" xmlns:xlink="http://www.w3.org/1999/xlink"><defs><style type="text/css"><![CDATA[
@font-face {
  font-family: "ifont";
  src: url("//at.alicdn.com/t/font_1442373896_4754455.eot?#iefix") format("embedded-opentype"), url("//at.alicdn.com/t/font_1442373896_4754455.woff") format("woff"), url("//at.alicdn.com/t/font_1442373896_4754455.ttf") format("truetype"), url("//at.alicdn.com/t/font_1442373896_4754455.svg#ifont") format("svg");
}

]]></style></defs><g class="transform-group"><g transform="scale(0.03125, 0.03125)"><path d="M510.560417 955.475451c-246.716432 0-447.438911-200.722479-447.438911-447.438911s200.723503-447.437887 447.438911-447.437887 447.438911 200.722479 447.438911 447.438911-200.722479 447.437887-447.438911 447.437887z m0-857.468124c-226.094357 0-410.030237 183.936903-410.030236 410.030237s183.936903 410.030237 410.030236 410.030236 410.030237-183.936903 410.030237-410.030236S736.654775 98.007327 510.560417 98.007327zM209.138816 391.045355c-1.314669 0-2.648791-0.182252-3.96346-0.566209-7.434431-2.192138-11.689699-9.991073-9.498584-17.425504 22.613531-76.770922 119.074792-171.899083 187.662822-185.03246 7.598253-1.55221 14.978418 3.525237 16.421073 11.12349 1.461084 7.616683-3.525237 14.959988-11.12349 16.421073-58.103444 11.14192-146.565089 99.256467-166.036316 165.414817-1.809205 6.100309-7.397571 10.064793-13.462045 10.064793zM728.945942 785.950758c-5.717376 0-11.087654-3.525237-13.169213-9.205753-2.667221-7.269586 1.078151-15.324492 8.347737-17.991713 16.840866-6.174029 53.299374-44.934231 61.318444-69.007823 2.44811-7.343306 10.283904-11.288336 17.754172-8.877086 7.343306 2.465516 11.325196 10.41189 8.877086 17.754171-10.265474 30.777993-51.984706 76.844641-78.305726 86.470188-1.58907 0.584639-3.215 0.858016-4.8225 0.858016zM510.560417 725.83845a18.643928 18.643928 0 0 1-13.224503-5.479834L298.239365 521.262067c-7.306446-7.306446-7.306446-19.14256 0-26.449006l199.096549-199.096549c7.306446-7.306446 19.14256-7.306446 26.449006 0l199.096549 199.096549c7.306446 7.306446 7.306446 19.14256 0 26.449006L523.78492 720.358616a18.643928 18.643928 0 0 1-13.224503 5.479834z m-172.648567-217.800886l172.648567 172.648567 172.648568-172.648567-172.648568-172.648568-172.648567 172.648568z" fill="#999"></path></g></g></svg>