<?xml version="1.0" standalone="no"?><!DOCTYPE svg PUBLIC "-//W3C//DTD SVG 1.1//EN" "http://www.w3.org/Graphics/SVG/1.1/DTD/svg11.dtd"><svg width="32" height="32" viewBox="0 0 32 32" version="1.1" xmlns="http://www.w3.org/2000/svg" xmlns:xlink="http://www.w3.org/1999/xlink"><defs><style type="text/css"><![CDATA[
@font-face {
  font-family: "ifont";
  src: url("//at.alicdn.com/t/font_1442373896_4754455.eot?#iefix") format("embedded-opentype"), url("//at.alicdn.com/t/font_1442373896_4754455.woff") format("woff"), url("//at.alicdn.com/t/font_1442373896_4754455.ttf") format("truetype"), url("//at.alicdn.com/t/font_1442373896_4754455.svg#ifont") format("svg");
}

]]></style></defs><g class="transform-group"><g transform="scale(0.03125, 0.03125)"><path d="M984.634366 1024 462.187239 1024 462.187239 720.845369l254.172935-167.287002 268.274192 166.971197L984.634366 1024zM500.544088 985.643151l445.734708 0L946.278796 741.836794 716.936806 599.096896 500.544088 741.51971 500.544088 985.643151zM1004.159281 653.591749c-3.384353 0-6.812176-0.896272-9.92036-2.778314L716.892056 482.766967 452.934289 650.596079c-8.938424 5.681928-20.79069 3.044255-26.475175-5.894169-5.683206-8.937146-3.044255-20.79069 5.894169-26.473897l284.051642-180.603221 297.711794 180.384587c9.058609 5.488865 11.953273 17.283596 6.464408 26.342205C1016.973025 650.30201 1010.645424 653.591749 1004.159281 653.591749zM383.69762 1024 0.50631 1024 0.50631 1.357832l735.188273 0 0 398.002168c0 10.591604-8.58682 19.178424-19.178424 19.178424s-19.178424-8.58682-19.178424-19.178424L697.337735 39.714681 38.863159 39.714681 38.863159 985.643151l344.834461 0c10.591604 0 19.178424 8.58682 19.178424 19.178424S394.289225 1024 383.69762 1024zM590.703139 348.532061 145.497755 348.532061c-10.591604 0-19.178424-8.58682-19.178424-19.178424s8.58682-19.178424 19.178424-19.178424l445.205384 0c10.590326 0 19.178424 8.58682 19.178424 19.178424S601.293465 348.532061 590.703139 348.532061zM368.085104 707.305401 145.497755 707.305401c-10.591604 0-19.178424-8.585541-19.178424-19.178424 0-10.590326 8.58682-19.178424 19.178424-19.178424l222.587349 0c10.591604 0 19.178424 8.588098 19.178424 19.178424C387.263529 698.71986 378.676709 707.305401 368.085104 707.305401zM442.644425 527.918092 145.497755 527.918092c-10.591604 0-19.178424-8.58682-19.178424-19.178424s8.58682-19.178424 19.178424-19.178424L442.644425 489.561244c10.591604 0 19.178424 8.58682 19.178424 19.178424S453.236029 527.918092 442.644425 527.918092z" fill="#999"></path></g></g></svg>