<?xml version="1.0" standalone="no"?><!DOCTYPE svg PUBLIC "-//W3C//DTD SVG 1.1//EN" "http://www.w3.org/Graphics/SVG/1.1/DTD/svg11.dtd"><svg width="32" height="32" viewBox="0 0 32 32" version="1.1" xmlns="http://www.w3.org/2000/svg" xmlns:xlink="http://www.w3.org/1999/xlink"><defs><style type="text/css"><![CDATA[
@font-face {
  font-family: "ifont";
  src: url("//at.alicdn.com/t/font_1442373896_4754455.eot?#iefix") format("embedded-opentype"), url("//at.alicdn.com/t/font_1442373896_4754455.woff") format("woff"), url("//at.alicdn.com/t/font_1442373896_4754455.ttf") format("truetype"), url("//at.alicdn.com/t/font_1442373896_4754455.svg#ifont") format("svg");
}

]]></style></defs><g class="transform-group"><g transform="scale(0.03125, 0.03125)"><path d="M742.087329 706.238866c-5.237281 7.566326-3.39533 17.975397 4.117784 23.255657 7.507998 5.269004 17.83725 3.412726 23.074531-4.1536 39.269375-56.767911 68.065212-119.312386 85.587284-185.903014 13.997805-53.205782 20.86419-109.067045 20.404726-166.035524-0.788969-97.092315-22.396079-163.272597-23.318078-166.047804-2.242064-6.752798-8.485255-11.33107-15.554254-11.400654-179.283246-1.788739-270.729981-81.302701-301.761742-115.452475-1.904373-2.117221-10.256598-10.515494-23.547299-11.295254-6.788613-0.398066-17.138332 1.163499-27.877931 10.862395-0.390903 0.346901-0.762363 0.723477-1.11438 1.107217C388.848169 182.992731 240.429885 195.36348 180.947142 195.954951c-7.339152 0.069585-13.756305 5.000897-15.771195 12.112875-0.352017 1.238201-8.673543 30.9325-14.004969 79.425957-4.88731 44.50768-8.065699 114.112967 4.590552 192.947454 14.258749 88.818885 45.267996 170.992419 92.171236 244.240677 58.506509 91.396593 141.933593 168.888502 247.959372 230.337016 2.130524 1.235131 4.507664 1.973958 6.955412 2.169409l2.28095 0.185218c0.436952 0.033769 0.871857 0.050142 1.309832 0.050142 2.89391 0 5.745864-0.762363 8.263198-2.222621 51.212382-29.679973 98.144274-63.407122 139.496078-100.249215 4.752234-3.752464 64.11525-50.034557 107.276259-55.94722 9.074679-1.240247 15.428388-9.655917 14.198374-18.796088-1.236154-9.140171-9.593496-15.547091-18.655895-14.299681-53.848419 7.365758-120.953769 60.888765-123.784234 63.163575-0.220011 0.179079-0.441045 0.367367-0.651846 0.552585-37.801954 33.717939-80.536244 64.774259-127.126352 92.361571-97.806583-57.933457-174.891216-130.123616-229.205239-214.680431-44.423769-69.164243-73.877591-146.834206-87.544869-230.848669-19.051915-117.094882-1.781576-214.523865 5.480828-247.353574 77.178777-2.334161 146.842393-18.602683 207.245088-48.422849 51.734268-25.547863 85.261872-55.407937 104.423281-76.193333 2.936889-2.51938 3.709485-1.995447 4.433986-1.315972 18.949584 20.828374 52.423977 51.027164 104.505146 76.946486 60.810994 30.259164 131.046638 46.724161 208.950939 49.002041 5.881964 22.053272 17.820877 75.137281 18.382673 144.559397 0.433882 53.981449-6.060019 106.875123-19.297508 157.195182C806.298769 593.683371 779.132036 652.687206 742.087329 706.238866L742.087329 706.238866zM302.642808 305.137629c8.733918-2.75167 13.604856-12.117992 10.872628-20.926612-2.729158-8.801457-12.023848-13.70821-20.764929-10.957563-18.174941 5.724375-42.918485 8.163937-43.162032 8.18645-7.367805 0.710175-13.377682 6.258541-14.7264 13.594623-0.521886 2.855024-12.661368 71.003124 2.112104 162.084539 1.329275 8.193613 8.357342 14.012132 16.337083 14.012132 0.886183 0 1.787716-0.074701 2.691295-0.222057 9.033747-1.490957 15.159258-10.076496 13.68365-19.179828-10.327206-63.651692-6.501064-116.077715-3.8814-138.67027C275.921213 311.586504 290.226011 309.043588 302.642808 305.137629L302.642808 305.137629zM302.642808 305.137629" fill="#999"></path></g></g></svg>