<?xml version="1.0" encoding="utf-8"?>
<!-- Generator: Adobe Illustrator 18.0.0, SVG Export Plug-In . SVG Version: 6.00 Build 0)  -->
<!DOCTYPE svg PUBLIC "-//W3C//DTD SVG 1.1//EN" "http://www.w3.org/Graphics/SVG/1.1/DTD/svg11.dtd">
<svg version="1.1" id="图层_1" xmlns="http://www.w3.org/2000/svg" xmlns:xlink="http://www.w3.org/1999/xlink" x="0px" y="0px"
	 viewBox="13 13 64 64" enable-background="new 13 13 64 64" xml:space="preserve">
<g>
	
		<linearGradient id="SVGID_1_" gradientUnits="userSpaceOnUse" x1="312.4615" y1="78.0529" x2="1301.6903" y2="-865.012" gradientTransform="matrix(5.625000e-002 0 0 -5.625000e-002 0 23.0625)">
		<stop  offset="0" style="stop-color:#07F0D7"/>
		<stop  offset="1" style="stop-color:#4B8BCD"/>
	</linearGradient>
	<path fill="url(#SVGID_1_)" d="M68.3,64.3c-0.4,0.4-0.8,0.9-1.3,1.2c-0.4,0.3-0.8,0.6-1.3,0.8l-0.3,0.2l2.9,3.7l3.1-2.5l-3-3.7
		L68.3,64.3z"/>
	
		<linearGradient id="SVGID_2_" gradientUnits="userSpaceOnUse" x1="304.264" y1="69.4541" x2="1293.4929" y2="-873.6107" gradientTransform="matrix(5.625000e-002 0 0 -5.625000e-002 0 23.0625)">
		<stop  offset="0" style="stop-color:#07F0D7"/>
		<stop  offset="1" style="stop-color:#4B8BCD"/>
	</linearGradient>
	<path fill="url(#SVGID_2_)" d="M70.1,20.7c-1-1-2.4-1.6-3.8-1.6H25.4c-3,0-5.4,2.4-5.4,5.4v46.3h0.3c0,0,1,0,2.6-0.1l0.3,0V24.6
		c0-1.2,1-2.3,2.3-2.3h40.9c1.2,0,2.3,1,2.3,2.3V45c-0.4-0.4-0.7-0.9-1.1-1.3c-2.8-2.8-6.4-4.3-10.3-4.3c-3.8,0-7.5,1.5-10.2,4.2
		H27.9c-0.9,0-1.6,0.7-1.6,1.6s0.7,1.6,1.6,1.6h16.5c-0.9,1.5-1.4,3.1-1.7,4.8H27.9c-0.9,0-1.6,0.7-1.6,1.6c0,0.9,0.7,1.6,1.6,1.6
		h14.5c0.1,3.5,1.5,6.7,3.8,9.3c-0.3,0.1-0.7,0.2-1,0.3c-3.3,1.1-7,1.8-9.8,2.2l-0.2,0v3.2l0.3,0c3.4-0.5,7.3-1.2,10.7-2.4
		c0.9-0.3,1.9-0.6,2.9-0.9c2.3,1.5,5.1,2.3,7.9,2.3c3.9,0,7.6-1.5,10.3-4.3c2.6-2.6,4.1-6.1,4.3-9.7h0V24.6
		C71.7,23.1,71.2,21.7,70.1,20.7z M65.2,62.1c-2.2,2.2-5,3.4-8.1,3.4c-1,0-2.1-0.1-3.1-0.4L53.8,65c-1.3-0.4-2.6-1.1-3.7-1.9
		L49.9,63h0c-0.3-0.3-0.6-0.5-0.9-0.8c-2-2-3.2-4.7-3.3-7.5h0l0-0.3c0-0.8,0-1.5,0.1-2.3c0.3-2,1.2-3.8,2.5-5.4h0l0.1-0.1
		c0.2-0.2,0.4-0.4,0.6-0.6c0,0,0,0,0.1-0.1c0.1-0.1,0.1-0.1,0.2-0.2c0.6-0.6,1.3-1.1,2.1-1.6l0.5-0.3c1.6-0.8,3.4-1.3,5.3-1.3
		c3.1,0,5.9,1.2,8.1,3.4c2.2,2.2,3.4,5,3.4,8.1C68.6,57.1,67.4,60,65.2,62.1z"/>
	
		<linearGradient id="SVGID_3_" gradientUnits="userSpaceOnUse" x1="387.0724" y1="156.316" x2="1376.3011" y2="-786.7488" gradientTransform="matrix(5.625000e-002 0 0 -5.625000e-002 0 23.0625)">
		<stop  offset="0" style="stop-color:#07F0D7"/>
		<stop  offset="1" style="stop-color:#4B8BCD"/>
	</linearGradient>
	<path fill="url(#SVGID_3_)" d="M27.9,38.8h35.8c0.9,0,1.6-0.7,1.6-1.6s-0.7-1.6-1.6-1.6H27.9c-0.9,0-1.6,0.7-1.6,1.6
		C26.4,38.1,27.1,38.8,27.9,38.8z"/>
	
		<linearGradient id="SVGID_4_" gradientUnits="userSpaceOnUse" x1="457.2924" y1="229.9732" x2="1446.521" y2="-713.0916" gradientTransform="matrix(5.625000e-002 0 0 -5.625000e-002 0 23.0625)">
		<stop  offset="0" style="stop-color:#07F0D7"/>
		<stop  offset="1" style="stop-color:#4B8BCD"/>
	</linearGradient>
	<path fill="url(#SVGID_4_)" d="M27.9,30.9h35.8c0.9,0,1.6-0.7,1.6-1.6c0-0.9-0.7-1.6-1.6-1.6H27.9c-0.9,0-1.6,0.7-1.6,1.6
		C26.4,30.2,27.1,30.9,27.9,30.9z"/>
</g>
</svg>
