<?xml version="1.0" encoding="utf-8"?>
<!-- Generator: Adobe Illustrator 18.0.0, SVG Export Plug-In . SVG Version: 6.00 Build 0)  -->
<!DOCTYPE svg PUBLIC "-//W3C//DTD SVG 1.1//EN" "http://www.w3.org/Graphics/SVG/1.1/DTD/svg11.dtd">
<svg version="1.1" id="图层_1" xmlns="http://www.w3.org/2000/svg" xmlns:xlink="http://www.w3.org/1999/xlink" x="0px" y="0px"
	 viewBox="13 13 64 64" enable-background="new 13 13 64 64" xml:space="preserve">
<linearGradient id="SVGID_1_" gradientUnits="userSpaceOnUse" x1="279.6844" y1="59.7766" x2="1136.6128" y2="-944.5435" gradientTransform="matrix(5.625000e-002 0 0 -5.625000e-002 0 23.0625)">
	<stop  offset="0" style="stop-color:#07F0D7"/>
	<stop  offset="1" style="stop-color:#4B8BCD"/>
</linearGradient>
<path fill="url(#SVGID_1_)" d="M53.1,48.1c4.3-4.4,6.8-11.7,6.8-16.5c0-7.3-5.7-15-14.8-15c0,0,0,0,0,0c0,0,0,0,0,0
	c-9.1,0-14.8,7.7-14.8,15c0,4.8,2.5,12,6.8,16.5c-8.5,5.1-16.7,10.2-16.7,19.3c0,6,4.5,5.9,4.5,5.9h33.6l0,0h7c0,0,4.5,0.1,4.5-5.9
	C69.8,58.3,61.6,53.2,53.1,48.1z M63.7,70.1l-8,0v0l-5.7,0l-3.2-13.4l3.2-6.7c0,0-0.1,0.1-0.3,0.2l0.1-0.2c0,0-2.1,1.6-4.7,1.7
	c-2.7,0-4.7-1.7-4.7-1.7l0.1,0.2c-0.2-0.1-0.3-0.2-0.3-0.2l3.2,6.7l-3.2,13.4l-5.7,0v0l-8,0c0,0-3.1,0.4-3.1-4.5
	c0-7.5,10.6-11.5,18.9-17.7c-3.2-1.8-6-5.8-7.4-9.7c-0.7-2-1-4.1-1-5.8c0-5.9,4.3-12.5,11.4-12.5c7.1,0.1,11.4,6.6,11.4,12.5
	c0,1.8-0.4,3.8-1,5.8c-1.5,3.9-4.2,7.9-7.4,9.7c8.2,6.2,18.9,10.2,18.9,17.7C66.8,70.5,63.7,70.1,63.7,70.1z"/>
</svg>
