<?xml version="1.0" encoding="utf-8"?>
<!-- Generator: Adobe Illustrator 18.0.0, SVG Export Plug-In . SVG Version: 6.00 Build 0)  -->
<!DOCTYPE svg PUBLIC "-//W3C//DTD SVG 1.1//EN" "http://www.w3.org/Graphics/SVG/1.1/DTD/svg11.dtd">
<svg width="90" height="90" version="1.1" id="图层_1" xmlns="http://www.w3.org/2000/svg" xmlns:xlink="http://www.w3.org/1999/xlink" x="0px" y="0px"
	 viewBox="0 0 90 90" enable-background="new 0 0 90 90" xml:space="preserve">
<g>
	<g transform="scale(0.0625, 0.0625)">
		<path fill="#CBCBCB" d="M1396,1198.1h-98.9V406.7c0-36.4-29.5-65.9-65.9-65.9H967.3V142.9c0-54.6-11.3-98.9-66-98.9l-659.5,0
			c-54.6,0-98.9,44.3-98.9,98.9v1055.2H44c-18.2,0-33,14.7-33,33V1363c0,18.2,14.7,33,33,33H1396c18.2,0,32.9-14.8,32.9-33v-131.9
			C1428.9,1212.9,1414.2,1198.1,1396,1198.1z M505.7,1066.2c0,36.4-29.5,65.9-65.9,65.9h-65.9c-36.4,0-65.9-29.6-65.9-65.9v-65.9
			c0-36.5,29.5-65.9,65.9-65.9h65.9c36.4,0,65.9,29.5,65.9,65.9V1066.2z M505.7,736.5c0,36.4-29.5,65.9-65.9,65.9h-65.9
			c-36.4,0-65.9-29.6-65.9-65.9v-65.9c0-36.5,29.5-66,65.9-66h65.9c36.4,0,65.9,29.5,65.9,66V736.5z M505.7,406.7
			c0,36.4-29.5,65.9-65.9,65.9h-65.9c-36.4,0-65.9-29.5-65.9-65.9v-65.9c0-36.4,29.5-65.9,65.9-65.9h65.9
			c36.4,0,65.9,29.5,65.9,65.9V406.7z M802.5,1066.2c0,36.4-29.5,65.9-65.9,65.9h-65.9c-36.4,0-65.9-29.6-65.9-65.9v-65.9
			c0-36.5,29.5-65.9,65.9-65.9h65.9c36.4,0,65.9,29.5,65.9,65.9V1066.2z M802.5,736.5c0,36.4-29.5,65.9-65.9,65.9h-65.9
			c-36.4,0-65.9-29.6-65.9-65.9v-65.9c0-36.5,29.5-66,65.9-66h65.9c36.4,0,65.9,29.5,65.9,66V736.5z M802.5,406.7
			c0,36.4-29.5,65.9-65.9,65.9h-65.9c-36.4,0-65.9-29.5-65.9-65.9v-65.9c0-36.4,29.5-65.9,65.9-65.9h65.9
			c36.4,0,65.9,29.5,65.9,65.9V406.7z M1165.2,967.3c0,18.2-14.8,33-33,33h-65.9c-18.2,0-33-14.8-33-33v-65.9c0-18.2,14.8-33,33-33
			h65.9c18.2,0,33,14.7,33,33V967.3z M1165.2,703.5c0,18.2-14.8,33-33,33h-65.9c-18.2,0-33-14.8-33-33v-65.9c0-18.2,14.8-33,33-33
			h65.9c18.2,0,33,14.8,33,33V703.5z"/>
	</g>
</g>
</svg>
