<?xml version="1.0" encoding="utf-8"?>
<!-- Generator: Adobe Illustrator 18.0.0, SVG Export Plug-In . SVG Version: 6.00 Build 0)  -->
<!DOCTYPE svg PUBLIC "-//W3C//DTD SVG 1.1//EN" "http://www.w3.org/Graphics/SVG/1.1/DTD/svg11.dtd">
<svg version="1.1" id="图层_1" xmlns="http://www.w3.org/2000/svg" xmlns:xlink="http://www.w3.org/1999/xlink" x="0px" y="0px"
	 viewBox="13 13 64 64" enable-background="new 13 13 64 64" xml:space="preserve">
<g>
	
		<linearGradient id="SVGID_1_" gradientUnits="userSpaceOnUse" x1="6.358" y1="-150.5896" x2="1015.8169" y2="-1161.6431" gradientTransform="matrix(5.625000e-002 0 0 -5.625000e-002 0 23.0625)">
		<stop  offset="0" style="stop-color:#07F0D7"/>
		<stop  offset="1" style="stop-color:#4B8BCD"/>
	</linearGradient>
	<path fill="url(#SVGID_1_)" d="M33.2,59.7h-6.5c-0.8,0-1.4,0.6-1.4,1.4s0.6,1.4,1.4,1.4h6.5c0.8,0,1.4-0.6,1.4-1.4
		C34.6,60.4,34,59.7,33.2,59.7z"/>
	
		<linearGradient id="SVGID_2_" gradientUnits="userSpaceOnUse" x1="98.1654" y1="-58.9271" x2="1107.624" y2="-1069.9806" gradientTransform="matrix(5.625000e-002 0 0 -5.625000e-002 0 23.0625)">
		<stop  offset="0" style="stop-color:#07F0D7"/>
		<stop  offset="1" style="stop-color:#4B8BCD"/>
	</linearGradient>
	<path fill="url(#SVGID_2_)" d="M33.2,49.4h-6.5c-0.8,0-1.4,0.6-1.4,1.4c0,0.8,0.6,1.4,1.4,1.4h6.5c0.8,0,1.4-0.6,1.4-1.4
		C34.6,50,34,49.4,33.2,49.4z"/>
	
		<linearGradient id="SVGID_3_" gradientUnits="userSpaceOnUse" x1="227.2125" y1="69.9165" x2="1236.6713" y2="-941.1369" gradientTransform="matrix(5.625000e-002 0 0 -5.625000e-002 0 23.0625)">
		<stop  offset="0" style="stop-color:#07F0D7"/>
		<stop  offset="1" style="stop-color:#4B8BCD"/>
	</linearGradient>
	<path fill="url(#SVGID_3_)" d="M36.6,68.7H20.7V21.2h35.7V29c0,0.8,0.6,1.4,1.4,1.4s1.4-0.6,1.4-1.4v-7.8c0-1.6-1.3-2.8-2.8-2.8
		H20.7c-1.6,0-2.8,1.3-2.8,2.8v47.5c0,1.6,1.3,2.8,2.8,2.8h15.9c0.8,0,1.4-0.6,1.4-1.4C38,69.3,37.4,68.7,36.6,68.7z"/>
	
		<linearGradient id="SVGID_4_" gradientUnits="userSpaceOnUse" x1="207.3967" y1="50.132" x2="1216.8555" y2="-960.9215" gradientTransform="matrix(5.625000e-002 0 0 -5.625000e-002 0 23.0625)">
		<stop  offset="0" style="stop-color:#07F0D7"/>
		<stop  offset="1" style="stop-color:#4B8BCD"/>
	</linearGradient>
	<path fill="url(#SVGID_4_)" d="M38.5,40.5c0-0.8-0.6-1.4-1.4-1.4H26.7c-0.8,0-1.4,0.6-1.4,1.4c0,0.8,0.6,1.4,1.4,1.4h10.4
		C37.9,41.9,38.5,41.3,38.5,40.5z"/>
	
		<linearGradient id="SVGID_5_" gradientUnits="userSpaceOnUse" x1="278.9224" y1="121.5449" x2="1288.3811" y2="-889.5087" gradientTransform="matrix(5.625000e-002 0 0 -5.625000e-002 0 23.0625)">
		<stop  offset="0" style="stop-color:#07F0D7"/>
		<stop  offset="1" style="stop-color:#4B8BCD"/>
	</linearGradient>
	<path fill="url(#SVGID_5_)" d="M66.2,43.4c-3.1-3.1-7.3-4.8-11.7-4.8s-8.6,1.7-11.7,4.8c-3.1,3.1-4.8,7.3-4.8,11.7
		s1.7,8.6,4.8,11.7c3.1,3.1,7.3,4.8,11.7,4.8s8.6-1.7,11.7-4.8c3.1-3.1,4.8-7.3,4.8-11.7C71.1,50.7,69.3,46.6,66.2,43.4z M54.5,68.8
		c-7.5,0-13.7-6.1-13.7-13.7c0-7.5,6.1-13.7,13.7-13.7c7.5,0,13.7,6.1,13.7,13.7S62.1,68.8,54.5,68.8z"/>
	
		<linearGradient id="SVGID_6_" gradientUnits="userSpaceOnUse" x1="359.7424" y1="202.2373" x2="1369.2012" y2="-808.816" gradientTransform="matrix(5.625000e-002 0 0 -5.625000e-002 0 23.0625)">
		<stop  offset="0" style="stop-color:#07F0D7"/>
		<stop  offset="1" style="stop-color:#4B8BCD"/>
	</linearGradient>
	<path fill="url(#SVGID_6_)" d="M52.1,30.2c0-0.8-0.6-1.4-1.4-1.4h-24c-0.8,0-1.4,0.6-1.4,1.4s0.6,1.4,1.4,1.4h24
		C51.5,31.6,52.1,31,52.1,30.2z"/>
	
		<linearGradient id="SVGID_7_" gradientUnits="userSpaceOnUse" x1="278.4192" y1="121.0424" x2="1287.8779" y2="-890.0112" gradientTransform="matrix(5.625000e-002 0 0 -5.625000e-002 0 23.0625)">
		<stop  offset="0" style="stop-color:#07F0D7"/>
		<stop  offset="1" style="stop-color:#4B8BCD"/>
	</linearGradient>
	<path fill="url(#SVGID_7_)" d="M47.7,47.5c0,3.6,2.6,6.3,4.4,7.8c-1.8,1.5-4.4,4.2-4.4,7.8v1.4h13.8v-1.4c0-3.6-2.6-6.3-4.4-7.8
		c1.8-1.5,4.4-4.2,4.4-7.8v-1.4H47.7V47.5z M58.5,61.7h-7.7c0.7-2.2,2.7-3.9,3.8-4.7c0.5,0.3,1.1,0.8,1.7,1.4
		C57.5,59.5,58.2,60.6,58.5,61.7z M58.5,49c-0.7,2.2-2.7,3.9-3.8,4.7c-1.1-0.8-3.2-2.5-3.8-4.7H58.5z"/>
</g>
</svg>
