<?xml version="1.0" encoding="utf-8"?>
<!-- Generator: Adobe Illustrator 18.0.0, SVG Export Plug-In . SVG Version: 6.00 Build 0)  -->
<!DOCTYPE svg PUBLIC "-//W3C//DTD SVG 1.1//EN" "http://www.w3.org/Graphics/SVG/1.1/DTD/svg11.dtd">
<svg version="1.1" id="图层_1" xmlns="http://www.w3.org/2000/svg" xmlns:xlink="http://www.w3.org/1999/xlink" x="0px" y="0px"
	 viewBox="13 13 64 64" enable-background="new 13 13 64 64" xml:space="preserve">
<g>
	
		<linearGradient id="SVGID_1_" gradientUnits="userSpaceOnUse" x1="159.1496" y1="-46.5089" x2="1084.4723" y2="-950.6907" gradientTransform="matrix(5.625000e-002 0 0 -5.625000e-002 0 23.0625)">
		<stop  offset="0" style="stop-color:#07F0D7"/>
		<stop  offset="1" style="stop-color:#4B8BCD"/>
	</linearGradient>
	<rect x="26.7" y="56.9" fill="url(#SVGID_1_)" width="32.3" height="3.9"/>
	
		<linearGradient id="SVGID_2_" gradientUnits="userSpaceOnUse" x1="307.7427" y1="105.5586" x2="1233.0654" y2="-798.6232" gradientTransform="matrix(5.625000e-002 0 0 -5.625000e-002 0 23.0625)">
		<stop  offset="0" style="stop-color:#07F0D7"/>
		<stop  offset="1" style="stop-color:#4B8BCD"/>
	</linearGradient>
	<rect x="26.7" y="35" fill="url(#SVGID_2_)" width="21.7" height="3.9"/>
	
		<linearGradient id="SVGID_3_" gradientUnits="userSpaceOnUse" x1="249.3557" y1="45.8064" x2="1174.6785" y2="-858.3755" gradientTransform="matrix(5.625000e-002 0 0 -5.625000e-002 0 23.0625)">
		<stop  offset="0" style="stop-color:#07F0D7"/>
		<stop  offset="1" style="stop-color:#4B8BCD"/>
	</linearGradient>
	<rect x="26.7" y="45.9" fill="url(#SVGID_3_)" width="30.6" height="3.9"/>
	
		<linearGradient id="SVGID_4_" gradientUnits="userSpaceOnUse" x1="548.8893" y1="352.3434" x2="1474.212" y2="-551.8384" gradientTransform="matrix(5.625000e-002 0 0 -5.625000e-002 0 23.0625)">
		<stop  offset="0" style="stop-color:#07F0D7"/>
		<stop  offset="1" style="stop-color:#4B8BCD"/>
	</linearGradient>
	<path fill="url(#SVGID_4_)" d="M70.5,29.8c-0.1-0.2-0.3-0.2-0.5-0.2h-1.1c-0.5,0-1-0.4-1.1-0.8l-0.6-1.4c-0.2-0.4-0.1-1,0.2-1.4
		l0.8-0.8c0.1-0.1,0.2-0.3,0.2-0.5s-0.1-0.4-0.2-0.5l-1.4-1.4c-0.1-0.1-0.3-0.2-0.5-0.2c-0.2,0-0.4,0.1-0.5,0.2L65,23.6
		c-0.3,0.3-1,0.4-1.4,0.2l-1.4-0.6c-0.5-0.1-0.8-0.6-0.8-1.1v-1.1c0-0.2-0.1-0.4-0.2-0.5c-0.1-0.1-0.3-0.2-0.5-0.2h-1.9
		c-0.2,0-0.4,0.1-0.5,0.2c-0.1,0.1-0.2,0.3-0.2,0.5v1.1c0,0.5-0.4,1-0.8,1.1l-1.4,0.6c-0.4,0.2-1,0.1-1.4-0.2l-0.8-0.8
		c-0.1-0.1-0.3-0.2-0.5-0.2s-0.4,0.1-0.5,0.2l-1.4,1.4c-0.1,0.1-0.2,0.3-0.2,0.5s0.1,0.4,0.2,0.5l0.8,0.8c0.3,0.3,0.4,1,0.2,1.4
		l-0.6,1.4c-0.1,0.5-0.6,0.8-1.1,0.8h-1.1c-0.2,0-0.4,0.1-0.5,0.2c-0.1,0.1-0.2,0.3-0.2,0.5v1.9c0,0.2,0.1,0.4,0.2,0.5
		C48.8,33,49,33,49.2,33h1.1c0.5,0,1,0.4,1.1,0.8l0.6,1.4c0.2,0.4,0.1,1-0.2,1.4l-0.8,0.8c-0.1,0.1-0.2,0.3-0.2,0.5s0.1,0.4,0.2,0.5
		l1.4,1.4c0.1,0.1,0.3,0.2,0.5,0.2s0.4-0.1,0.5-0.2l0.8-0.8c0.3-0.3,0.9-0.4,1.4-0.2l1.4,0.6c0.5,0.1,0.8,0.6,0.8,1.1v1.1
		c0,0.2,0.1,0.4,0.2,0.5c0.1,0.1,0.3,0.2,0.5,0.2h1.9c0.2,0,0.4-0.1,0.5-0.2c0.1-0.1,0.2-0.3,0.2-0.5v-1.1c0-0.5,0.4-1,0.8-1.1
		l1.4-0.6c0.4-0.2,1-0.1,1.4,0.2l0.8,0.8c0.1,0.1,0.3,0.2,0.5,0.2s0.4-0.1,0.5-0.2l1.4-1.4c0.1-0.1,0.2-0.3,0.2-0.5
		c0-0.2-0.1-0.4-0.2-0.5l-0.8-0.8c-0.3-0.3-0.4-1-0.2-1.4l0.6-1.4c0.1-0.5,0.6-0.8,1.1-0.8H70c0.2,0,0.4-0.1,0.5-0.2
		c0.1-0.1,0.2-0.3,0.2-0.5v-1.9C70.8,30.2,70.7,30,70.5,29.8z M59.6,35.6c-2.4,0-4.3-1.9-4.3-4.3s1.9-4.3,4.3-4.3
		c2.4,0,4.3,1.9,4.3,4.3C63.9,33.7,62,35.6,59.6,35.6z"/>
	
		<linearGradient id="SVGID_5_" gradientUnits="userSpaceOnUse" x1="174.4077" y1="-30.8939" x2="1099.7305" y2="-935.0757" gradientTransform="matrix(5.625000e-002 0 0 -5.625000e-002 0 23.0625)">
		<stop  offset="0" style="stop-color:#07F0D7"/>
		<stop  offset="1" style="stop-color:#4B8BCD"/>
	</linearGradient>
	<path fill="url(#SVGID_5_)" d="M64.2,66.8H22.2V24.9h19.5v-3H22.2c-1.7,0-3,1.3-3,3v41.9c0,1.7,1.3,3,3,3h41.9c1.7,0,3-1.3,3-3
		V47.4h-3V66.8z"/>
</g>
</svg>
