<?xml version="1.0" encoding="utf-8"?>
<!-- Generator: Adobe Illustrator 18.0.0, SVG Export Plug-In . SVG Version: 6.00 Build 0)  -->
<!DOCTYPE svg PUBLIC "-//W3C//DTD SVG 1.1//EN" "http://www.w3.org/Graphics/SVG/1.1/DTD/svg11.dtd">
<svg version="1.1" id="图层_1" xmlns="http://www.w3.org/2000/svg" xmlns:xlink="http://www.w3.org/1999/xlink" x="0px" y="0px"
	 viewBox="13 13 64 64" enable-background="new 13 13 64 64" xml:space="preserve">
<g>
	
		<linearGradient id="SVGID_1_" gradientUnits="userSpaceOnUse" x1="420.5752" y1="170.6187" x2="1180.7727" y2="-886.8628" gradientTransform="matrix(5.625000e-002 0 0 -5.625000e-002 0 23.0625)">
		<stop  offset="0" style="stop-color:#07F0D7"/>
		<stop  offset="1" style="stop-color:#4B8BCD"/>
	</linearGradient>
	<path fill="url(#SVGID_1_)" d="M32.6,33.8h10.3c0.4,0,0.7-0.4,0.7-0.8c0-0.4-0.3-0.7-0.7-0.7H32.6c-0.4,0-0.7,0.4-0.7,0.8
		C31.9,33.5,32.2,33.8,32.6,33.8z"/>
	
		<linearGradient id="SVGID_2_" gradientUnits="userSpaceOnUse" x1="317.9755" y1="96.8624" x2="1078.173" y2="-960.6191" gradientTransform="matrix(5.625000e-002 0 0 -5.625000e-002 0 23.0625)">
		<stop  offset="0" style="stop-color:#07F0D7"/>
		<stop  offset="1" style="stop-color:#4B8BCD"/>
	</linearGradient>
	<path fill="url(#SVGID_2_)" d="M31.9,51.4c0,0.4,0.3,0.7,0.7,0.7h16.8c0.8-0.6,1.7-1.1,2.7-1.5H32.6C32.2,50.7,31.9,51,31.9,51.4z"
		/>
	
		<linearGradient id="SVGID_3_" gradientUnits="userSpaceOnUse" x1="441.7619" y1="185.8493" x2="1201.9594" y2="-871.6321" gradientTransform="matrix(5.625000e-002 0 0 -5.625000e-002 0 23.0625)">
		<stop  offset="0" style="stop-color:#07F0D7"/>
		<stop  offset="1" style="stop-color:#4B8BCD"/>
	</linearGradient>
	<path fill="url(#SVGID_3_)" d="M55.2,38.4H32.6c-0.4,0-0.7,0.3-0.7,0.7s0.3,0.7,0.7,0.7h22.6c0.4,0,0.7-0.3,0.7-0.7
		S55.6,38.4,55.2,38.4z"/>
	
		<linearGradient id="SVGID_4_" gradientUnits="userSpaceOnUse" x1="399.3194" y1="155.3385" x2="1159.517" y2="-902.1428" gradientTransform="matrix(5.625000e-002 0 0 -5.625000e-002 0 23.0625)">
		<stop  offset="0" style="stop-color:#07F0D7"/>
		<stop  offset="1" style="stop-color:#4B8BCD"/>
	</linearGradient>
	<path fill="url(#SVGID_4_)" d="M44.3,68l-5.9-5.7c-0.3-0.3-0.8-0.5-1.3-0.5c-0.5,0-0.9,0.2-1.3,0.5l-5.4,5.4l-4.7-4.5V19.4h29.3
		v6.1c0,0.6,0.5,1.1,1.1,1.1h7V52c1.1,0.6,2.1,1.4,2.9,2.3V26.1c0-0.5-0.2-1-0.6-1.3l-8-7.9c-0.3-0.3-0.8-0.5-1.3-0.5H24.5
		c-1,0-1.9,0.8-1.9,1.9v45.2c0,0.5,0.2,1,0.6,1.3l5.6,5.6c0.7,0.7,1.9,0.7,2.6,0l5.7-5.7l5.9,5.7c0.7,0.7,1.9,0.7,2.6,0l1.2-1.1
		c-0.5-0.8-0.9-1.6-1.2-2.5L44.3,68z"/>
	
		<linearGradient id="SVGID_5_" gradientUnits="userSpaceOnUse" x1="390.15" y1="148.7468" x2="1150.3475" y2="-908.7346" gradientTransform="matrix(5.625000e-002 0 0 -5.625000e-002 0 23.0625)">
		<stop  offset="0" style="stop-color:#07F0D7"/>
		<stop  offset="1" style="stop-color:#4B8BCD"/>
	</linearGradient>
	<path fill="url(#SVGID_5_)" d="M55.9,45.3c0-0.4-0.3-0.7-0.7-0.7H32.6c-0.4,0-0.7,0.4-0.7,0.8c0,0.4,0.3,0.7,0.7,0.7h22.6
		C55.6,46,55.9,45.7,55.9,45.3z"/>
	
		<linearGradient id="SVGID_6_" gradientUnits="userSpaceOnUse" x1="392.184" y1="150.2089" x2="1152.3813" y2="-907.2725" gradientTransform="matrix(5.625000e-002 0 0 -5.625000e-002 0 23.0625)">
		<stop  offset="0" style="stop-color:#07F0D7"/>
		<stop  offset="1" style="stop-color:#4B8BCD"/>
	</linearGradient>
	<path fill="url(#SVGID_6_)" d="M57.1,53.2c-5.6,0-10.2,4.6-10.2,10.2c0,5.6,4.6,10.2,10.2,10.2s10.2-4.6,10.2-10.2
		C67.4,57.8,62.8,53.2,57.1,53.2z M57.1,71c-4.2,0-7.5-3.4-7.5-7.5s3.4-7.6,7.6-7.6s7.6,3.4,7.6,7.5S61.3,71,57.1,71z"/>
	
		<linearGradient id="SVGID_7_" gradientUnits="userSpaceOnUse" x1="422.1478" y1="171.7492" x2="1182.3453" y2="-885.7322" gradientTransform="matrix(5.625000e-002 0 0 -5.625000e-002 0 23.0625)">
		<stop  offset="0" style="stop-color:#07F0D7"/>
		<stop  offset="1" style="stop-color:#4B8BCD"/>
	</linearGradient>
	<path fill="url(#SVGID_7_)" d="M60.6,61.4h-1.4c-0.4,0-0.6,0.2-0.6,0.6v4.4c0,0.4,0.2,0.5,0.6,0.5c0.4,0,0.5-0.2,0.6-0.5v-1.3h0.9
		c1.2-0.1,1.9-0.7,1.9-1.9C62.4,62.1,61.8,61.5,60.6,61.4z M60.5,64.1h-0.8v-1.6h0.8c0.5,0,0.8,0.3,0.8,0.8
		C61.3,63.8,61,64,60.5,64.1z"/>
	
		<linearGradient id="SVGID_8_" gradientUnits="userSpaceOnUse" x1="360.5107" y1="127.4398" x2="1120.7083" y2="-930.0416" gradientTransform="matrix(5.625000e-002 0 0 -5.625000e-002 0 23.0625)">
		<stop  offset="0" style="stop-color:#07F0D7"/>
		<stop  offset="1" style="stop-color:#4B8BCD"/>
	</linearGradient>
	<path fill="url(#SVGID_8_)" d="M55.8,61.3c-0.2,0-0.4,0.1-0.5,0.4l-1.2,3.2l-1.2-3.2c-0.1-0.2-0.3-0.4-0.5-0.4
		c-0.4,0-0.6,0.2-0.6,0.6c0,0.1,0,0.2,0,0.3l1.7,4.3c0.1,0.3,0.3,0.4,0.6,0.4c0.2,0,0.4-0.1,0.6-0.4l1.7-4.3c0-0.1,0-0.2,0.1-0.3
		C56.4,61.5,56.2,61.4,55.8,61.3z"/>
	
		<linearGradient id="SVGID_9_" gradientUnits="userSpaceOnUse" x1="387.9149" y1="147.14" x2="1148.1124" y2="-910.3414" gradientTransform="matrix(5.625000e-002 0 0 -5.625000e-002 0 23.0625)">
		<stop  offset="0" style="stop-color:#07F0D7"/>
		<stop  offset="1" style="stop-color:#4B8BCD"/>
	</linearGradient>
	<path fill="url(#SVGID_9_)" d="M57.3,61.3c-0.4,0-0.6,0.2-0.6,0.6v4.4c0,0.4,0.2,0.5,0.6,0.5c0.4,0,0.6-0.2,0.6-0.5v-4.4
		C57.9,61.5,57.7,61.3,57.3,61.3z"/>
</g>
<g display="none">
	
		<linearGradient id="SVGID_10_" gradientUnits="userSpaceOnUse" x1="147.6588" y1="-17.0875" x2="1072.9816" y2="-921.2693" gradientTransform="matrix(5.625000e-002 0 0 -5.625000e-002 0 23.0625)">
		<stop  offset="0" style="stop-color:#07F0D7"/>
		<stop  offset="1" style="stop-color:#4B8BCD"/>
	</linearGradient>
	<rect x="26.1" y="55.3" display="inline" fill="url(#SVGID_10_)" width="32.3" height="3.9"/>
	
		<linearGradient id="SVGID_11_" gradientUnits="userSpaceOnUse" x1="296.252" y1="134.98" x2="1221.5747" y2="-769.2018" gradientTransform="matrix(5.625000e-002 0 0 -5.625000e-002 0 23.0625)">
		<stop  offset="0" style="stop-color:#07F0D7"/>
		<stop  offset="1" style="stop-color:#4B8BCD"/>
	</linearGradient>
	<rect x="26.1" y="33.4" display="inline" fill="url(#SVGID_11_)" width="21.7" height="3.9"/>
	
		<linearGradient id="SVGID_12_" gradientUnits="userSpaceOnUse" x1="237.865" y1="75.2278" x2="1163.1877" y2="-828.954" gradientTransform="matrix(5.625000e-002 0 0 -5.625000e-002 0 23.0625)">
		<stop  offset="0" style="stop-color:#07F0D7"/>
		<stop  offset="1" style="stop-color:#4B8BCD"/>
	</linearGradient>
	<rect x="26" y="44.2" display="inline" fill="url(#SVGID_12_)" width="30.6" height="3.9"/>
	
		<linearGradient id="SVGID_13_" gradientUnits="userSpaceOnUse" x1="537.3986" y1="381.7649" x2="1462.7213" y2="-522.417" gradientTransform="matrix(5.625000e-002 0 0 -5.625000e-002 0 23.0625)">
		<stop  offset="0" style="stop-color:#07F0D7"/>
		<stop  offset="1" style="stop-color:#4B8BCD"/>
	</linearGradient>
	<path display="inline" fill="url(#SVGID_13_)" d="M69.9,28.2C69.8,28,69.6,28,69.4,28h-1.1c-0.5,0-1-0.4-1.1-0.8l-0.6-1.4
		c-0.2-0.4-0.1-1,0.2-1.4l0.8-0.8c0.1-0.1,0.2-0.3,0.2-0.5s-0.1-0.4-0.2-0.5l-1.4-1.4c-0.1-0.1-0.3-0.2-0.5-0.2
		c-0.2,0-0.4,0.1-0.5,0.2l-0.8,0.8c-0.3,0.3-1,0.4-1.4,0.2l-1.4-0.6c-0.5-0.1-0.8-0.6-0.8-1.1v-1.1c0-0.2-0.1-0.4-0.2-0.5
		c-0.1-0.1-0.3-0.2-0.5-0.2H58c-0.2,0-0.4,0.1-0.5,0.2c-0.1,0.1-0.2,0.3-0.2,0.5v1.1c0,0.5-0.4,1-0.8,1.1L55,22.1
		c-0.4,0.2-1,0.1-1.4-0.2l-0.8-0.8c-0.1-0.1-0.3-0.2-0.5-0.2c-0.2,0-0.4,0.1-0.5,0.2l-1.4,1.4c-0.1,0.1-0.2,0.3-0.2,0.5
		s0.1,0.4,0.2,0.5l0.8,0.8c0.3,0.3,0.4,1,0.2,1.4l-0.6,1.4c-0.1,0.5-0.6,0.8-1.1,0.8h-1.1c-0.2,0-0.4,0.1-0.5,0.2
		c-0.1,0.1-0.2,0.3-0.2,0.5v1.9c0,0.2,0.1,0.4,0.2,0.5c0.1,0.1,0.3,0.2,0.5,0.2h1.1c0.5,0,1,0.4,1.1,0.8l0.6,1.4
		c0.2,0.4,0.1,1-0.2,1.4l-0.8,0.8c-0.1,0.1-0.2,0.3-0.2,0.5s0.1,0.4,0.2,0.5l1.4,1.4c0.1,0.1,0.3,0.2,0.5,0.2c0.2,0,0.4-0.1,0.5-0.2
		l0.8-0.8c0.3-0.3,0.9-0.4,1.4-0.2l1.4,0.6c0.5,0.1,0.8,0.6,0.8,1.1v1.1c0,0.2,0.1,0.4,0.2,0.5c0.1,0.1,0.3,0.2,0.5,0.2h1.9
		c0.2,0,0.4-0.1,0.5-0.2c0.1-0.1,0.2-0.3,0.2-0.5v-1.1c0-0.5,0.4-1,0.8-1.1l1.4-0.6c0.4-0.2,1-0.1,1.4,0.2l0.8,0.8
		c0.1,0.1,0.3,0.2,0.5,0.2c0.2,0,0.4-0.1,0.5-0.2l1.4-1.4c0.1-0.1,0.2-0.3,0.2-0.5c0-0.2-0.1-0.4-0.2-0.5L66.7,35
		c-0.3-0.3-0.4-1-0.2-1.4l0.6-1.4c0.1-0.5,0.6-0.8,1.1-0.8h1.1c0.2,0,0.4-0.1,0.5-0.2c0.1-0.1,0.2-0.3,0.2-0.5v-1.9
		C70.1,28.5,70,28.3,69.9,28.2z M59,34c-2.4,0-4.3-1.9-4.3-4.3c0-2.4,1.9-4.3,4.3-4.3s4.3,1.9,4.3,4.3C63.3,32,61.3,34,59,34z"/>
	
		<linearGradient id="SVGID_14_" gradientUnits="userSpaceOnUse" x1="162.917" y1="-1.4725" x2="1088.2397" y2="-905.6543" gradientTransform="matrix(5.625000e-002 0 0 -5.625000e-002 0 23.0625)">
		<stop  offset="0" style="stop-color:#07F0D7"/>
		<stop  offset="1" style="stop-color:#4B8BCD"/>
	</linearGradient>
	<path display="inline" fill="url(#SVGID_14_)" d="M63.5,65.2H21.6V23.2h19.5v-3H21.6c-1.7,0-3,1.3-3,3v41.9c0,1.7,1.3,3,3,3h41.9
		c1.7,0,3-1.3,3-3V45.7h-3V65.2z"/>
</g>
</svg>
