<?xml version="1.0" standalone="no"?><!DOCTYPE svg PUBLIC "-//W3C//DTD SVG 1.1//EN" "http://www.w3.org/Graphics/SVG/1.1/DTD/svg11.dtd"><svg width="64" height="64" viewBox="0 0 64 64" version="1.1" xmlns="http://www.w3.org/2000/svg" xmlns:xlink="http://www.w3.org/1999/xlink"><defs><style type="text/css"><![CDATA[
@font-face {
  font-family: "ifont";
  src: url("//at.alicdn.com/t/font_1442373896_4754455.eot?#iefix") format("embedded-opentype"), url("//at.alicdn.com/t/font_1442373896_4754455.woff") format("woff"), url("//at.alicdn.com/t/font_1442373896_4754455.ttf") format("truetype"), url("//at.alicdn.com/t/font_1442373896_4754455.svg#ifont") format("svg");
}

]]></style></defs><g class="transform-group"><g transform="scale(0.0625, 0.0625)"><path d="M512 961.610044c-248.313435 0-449.610044-201.297632-449.610044-449.610044s201.297632-449.610044 449.610044-449.610044c248.312412 0 449.610044 201.297632 449.610044 449.610044S760.312412 961.610044 512 961.610044L512 961.610044zM384.507304 705.708793l94.361111-24.965601L369.905748 651.910517 384.507304 705.708793 384.507304 705.708793zM300.668851 396.718417l37.72623 139.054009 14.58109-53.738925-17.808598-65.643046 38.378076-10.157337 8.41567-31.018457L300.668851 396.718417 300.668851 396.718417zM613.552907 313.929876l-80.275301 21.23872 54.417377 14.402011 5.940292-1.570775 0.919952 3.387144 31.419594 8.314363L613.552907 313.929876 613.552907 313.929876zM657.274688 381.533576l-0.213871 0.791016-245.326405-64.917522-7.293103 26.866904 0.463558 0.124843L335.648526 599.649246l-0.464581-0.124843-7.074116 26.079982 37.341466 9.885138 0.252757 0.915859 140.367935 37.133735 1.601474-0.417509 133.320425 35.278481 20.62269-76.018348 0.538259-0.140193 18.881023-69.603241-0.249687-0.907673 44.045145-162.322969L657.274688 381.533576 657.274688 381.533576zM380.831588 538.762527l51.02921-188.080609 258.46975 68.390623-51.030234 188.087772L380.831588 538.762527 380.831588 538.762527zM482.489896 405.422659c-11.268648-2.977821-22.852474 3.624551-25.873274 14.753005-3.016707 11.128455 3.667529 22.567995 14.936177 25.549909 11.272741 2.986007 22.856567-3.624551 25.873274-14.748912C500.446873 419.848207 493.758544 408.404574 482.489896 405.422659L482.489896 405.422659zM603.149976 448.664509l-60.002582 52.261271-22.692838-39.172161-44.567032 41.429575-17.142425-28.964682-38.802748 43.211151 198.22976 52.460816L603.149976 448.664509 603.149976 448.664509z" fill="#fff"></path></g></g></svg>