<?xml version="1.0" standalone="no"?><!DOCTYPE svg PUBLIC "-//W3C//DTD SVG 1.1//EN" "http://www.w3.org/Graphics/SVG/1.1/DTD/svg11.dtd"><svg width="64" height="64" viewBox="0 0 64 64" version="1.1" xmlns="http://www.w3.org/2000/svg" xmlns:xlink="http://www.w3.org/1999/xlink"><defs><style type="text/css"><![CDATA[
@font-face {
  font-family: "ifont";
  src: url("//at.alicdn.com/t/font_1442373896_4754455.eot?#iefix") format("embedded-opentype"), url("//at.alicdn.com/t/font_1442373896_4754455.woff") format("woff"), url("//at.alicdn.com/t/font_1442373896_4754455.ttf") format("truetype"), url("//at.alicdn.com/t/font_1442373896_4754455.svg#ifont") format("svg");
}

]]></style></defs><g class="transform-group"><g transform="scale(0.0625, 0.0625)"><path d="M569.351708 624.201431l-40.467667 0 0.63445-21.50171 41.098024-0.63138c5.90243 0.421602 10.115382-0.737804 12.646018-3.477194 2.530636-2.740414 3.795443-6.007831 3.795443-9.801227 0-3.371794-1.36816-6.429433-4.111644-9.165754-2.737344-2.742461-7.062859-4.114714-12.96222-4.114714l-41.10314 0 0-12.011568c7.169283-6.743588 13.703093-13.281491 19.605523-19.602454 5.055133-5.058203 10.112312-10.218736 15.173584-15.491833 5.059226-5.269004 8.852622-8.953929 11.380188-11.062963 9.698896-8.432043 11.80486-15.808034 6.326079-22.13002-2.951215-3.796466-6.747681-5.689582-11.382235-5.689582-4.6366 0-8.851599 1.684362-12.644995 5.054109-2.111081 1.685385-5.690606 4.744048-10.750855 9.171893-5.058203 4.421706-10.119475 8.954953-15.176654 13.59053-5.89936 5.482875-12.435217 11.595083-19.60143 18.33867l-17.073864-17.073864-13.278421-13.276375c-4.211928-4.219091-7.166213-7.380084-8.851599-9.487072-3.371794-2.950192-7.797593-5.372358-13.276375-7.270591-5.478781-1.89721-10.119475-0.73678-13.911848 3.478218-3.372817 4.6366-4.216022 9.166777-2.529613 13.5936 1.686409 4.429893 3.585665 7.90504 5.689582 10.434653l9.484002 8.850575c4.63967 5.061272 9.697873 10.541077 15.177678 16.441461 6.321986 6.745634 13.276375 13.914918 20.866237 21.497617l-0.63138 13.279445-42.996257 0c-3.795443 0-7.061836 1.476631-9.804297 4.428869-2.736321 2.950192-4.108574 6.112208-4.108574 9.484002s1.263783 6.324032 3.793396 8.849552c2.529613 2.530636 5.900384 3.797489 10.119475 3.797489l42.996257 0 0 22.13309-42.996257 0c-3.795443 0-7.061836 1.155313-9.804297 3.474125-2.736321 2.320858-4.108574 5.376451-4.108574 9.169847-0.421602 3.371794 0.735757 6.219655 3.475148 8.53642 2.743484 2.318812 6.217608 3.477194 10.4367 3.477194l42.996257 0 0 12.647041c0.423649 5.904477 2.318812 10.011005 5.690606 12.329816 3.374864 2.320858 7.586792 3.477194 12.647041 3.477194 5.058203 0.423649 9.165754-1.157359 12.33084-4.740978 3.160993-3.579525 4.742001-7.269567 4.742001-11.066033l0-12.644995 44.262086 0c4.212952 0 7.693216-0.951675 10.432607-2.847861 2.739391-1.89721 3.89982-4.952802 3.475148-9.165754C587.053881 628.626207 581.152475 624.201431 569.351708 624.201431zM511.999488 66.607c-245.984391 0-445.394023 199.409632-445.394023 445.394023 0 245.983367 199.409632 445.394023 445.394023 445.394023s445.394023-199.410656 445.394023-445.394023C957.393511 266.015609 757.983879 66.607 511.999488 66.607zM384.115889 211.460086c2.950192-2.104941 6.321986-2.950192 10.118452-2.529613 3.794419 0.424672 7.797593 1.2689 12.012591 2.529613 4.218068 1.263783 8.325619 2.532683 12.329816 3.793396 4.004197 1.267876 7.694239 1.475608 11.066033 0.63138 5.903453-1.263783 10.328229-3.475148 13.279445-6.636141 2.951215-3.162016 8.009418-7.061836 15.173584-11.697413 5.482875-3.371794 11.594059-4.533246 18.337647-3.479241 6.746658 1.058099 11.80486 3.26844 15.173584 6.640234 1.692548 2.111081 3.483334 3.89982 5.375427 5.375427 1.898233 1.474584 3.89982 2.842745 6.006807 4.112668 2.111081 1.682315 4.427846 3.158946 6.958482 4.421706 0.843204 0 1.895163-0.422625 3.162016-1.261737 2.52859-1.685385 5.901407-4.63967 10.116405-8.854669 5.057179-4.635577 10.114358-8.008394 15.176654-10.115382 5.056156-2.106987 11.80486-1.477654 20.230764 1.893116 4.218068 1.2689 7.589862 3.057639 10.119475 5.375427 2.52859 2.318812 4.950755 4.533246 7.271614 6.640234 2.314719 2.106987 4.846378 3.897773 7.587815 5.376451 2.739391 1.473561 6.217608 2.210341 10.432607 2.210341 4.212952 0 7.798617-0.632403 10.751878-1.89721 2.947122-1.26583 5.79396-2.422166 8.53335-3.479241 2.743484-1.049912 5.478781-1.789763 8.222265-2.211365 2.737344-0.420579 6.003737 0 9.798157 1.264806 4.217045 1.684362 7.060813 4.111644 8.53642 7.271614 1.474584 3.162016 1.89721 6.426363 1.267876 9.801227-0.635473 3.370771-2.110057 6.743588-4.428869 10.115382-2.317789 3.375887-5.16258 6.115278-8.537444 8.222265-8.008394 5.055133-14.122649 10.222829-18.337647 15.488763-4.214998 5.27105-8.429996 10.857279-12.646018 16.758686-2.110057 2.950192-4.427846 6.323009-6.954389 10.115382-2.530636 3.793396-4.848425 7.586792-6.956436 11.383258-2.52859 4.637624-5.265934 9.0624-8.219195 13.280468l-130.891096 0c-2.947122-5.061272-5.898337-9.907651-8.850575-14.547321-2.529613-4.214998-5.265934-8.426927-8.219195-12.643971-2.951215-4.214998-5.478781-8.010441-7.586792-11.380188-4.214998-6.321986-8.958022-11.909238-14.227026-16.755616-5.269004-4.847401-10.43363-9.169847-15.491833-12.96529-5.478781-3.793396-9.273201-8.954953-11.383258-15.487739C376.320343 221.683938 378.215506 216.09771 384.115889 211.460086zM730.625788 614.881159c-3.792373 21.082154-11.275811 40.996716-22.448268 59.753919-11.17041 18.759249-26.02984 35.094286-44.578288 49.003064-18.545378 13.910824-40.573067 24.976858-66.075905 33.197076-25.50386 8.222265-54.484915 12.33391-86.946234 12.33391-33.30043 0-62.809511-4.745071-88.525196-14.230096-25.710568-9.484002-47.527456-21.814842-65.441455-36.990472-17.917068-15.173584-32.144094-32.140001-42.680055-50.89925-10.540054-18.759249-17.495466-37.413098-20.868283-55.962569-3.795443-20.654412-4.321422-40.46869-1.581008-59.433624 2.739391-18.971074 7.692193-36.783765 14.858406-53.432956 7.16519-16.651238 16.123212-31.93227 26.875091-45.844118 10.750855-13.909801 22.446221-26.343995 35.091216-37.305651 10.961656-9.694803 20.87033-18.863626 29.720905-27.507494 8.851599-8.642844 16.23066-16.543791 22.131043-23.710005 7.16519-8.010441 13.487176-15.594163 18.97005-22.765493l142.270261 0c5.056156 6.746658 11.382235 14.121626 18.97005 22.131043 6.321986 7.17133 14.123672 15.283078 23.397896 24.344454 9.270131 9.06547 20.020986 18.655895 32.245402 28.7723 10.118452 8.854669 20.552082 19.285229 31.30396 31.296797 10.749832 12.016685 20.126386 26.031886 28.138874 42.052768 8.007371 16.017812 13.59053 34.46086 16.755616 55.323003C735.370859 565.878095 734.841809 589.166497 730.625788 614.881159z" fill="#fff"></path></g></g></svg>