<?xml version="1.0" standalone="no"?><!DOCTYPE svg PUBLIC "-//W3C//DTD SVG 1.1//EN" "http://www.w3.org/Graphics/SVG/1.1/DTD/svg11.dtd"><svg width="64" height="64" viewBox="0 0 64 64" version="1.1" xmlns="http://www.w3.org/2000/svg" xmlns:xlink="http://www.w3.org/1999/xlink"><defs><style type="text/css"><![CDATA[
@font-face {
  font-family: "ifont";
  src: url("//at.alicdn.com/t/font_1442373896_4754455.eot?#iefix") format("embedded-opentype"), url("//at.alicdn.com/t/font_1442373896_4754455.woff") format("woff"), url("//at.alicdn.com/t/font_1442373896_4754455.ttf") format("truetype"), url("//at.alicdn.com/t/font_1442373896_4754455.svg#ifont") format("svg");
}

]]></style></defs><g class="transform-group"><g transform="scale(0.0625, 0.0625)"><path d="M336 692.8l-67.2 0c-27.2 0-48 20.8-48 48l0 67.2L384 808l0-67.2c0-12.8-4.8-24-14.4-33.6C361.6 697.6 348.8 692.8 336 692.8zM550.4 692.8l-67.2 0c-27.2 0-48 20.8-48 48l0 67.2 161.6 0 1.6 0 0-67.2C598.4 713.6 577.6 692.8 550.4 692.8zM499.2 603.2l0-132.8c0-19.2-12.8-35.2-32-38.4l-9.6-1.6L416 513.6l-41.6-83.2L364.8 432c-19.2 4.8-32 20.8-32 38.4l0 132.8c0 11.2 9.6 20.8 20.8 20.8l11.2 0 0 16 102.4 0 0-16 11.2 0C489.6 624 499.2 614.4 499.2 603.2zM510.4 3.2C228.512 3.2 0 231.712 0 513.6 0 795.488 228.512 1024 510.4 1024c281.888 0 510.4-228.512 510.4-510.4C1020.8 231.712 792.288 3.2 510.4 3.2zM200 296c0-56 44.8-100.8 100.8-100.8l428.8 0c56 0 100.8 44.8 100.8 100.8l0 244.8c0 56-44.8 100.8-100.8 100.8L548.8 641.6c-6.4 0-11.2-4.8-11.2-11.2 0-6.4 4.8-11.2 11.2-11.2l179.2 0c43.2 0 78.4-35.2 78.4-78.4L806.4 296c0-43.2-35.2-78.4-78.4-78.4L299.2 217.6c-43.2 0-78.4 35.2-78.4 78.4l0 241.6c0 24 4.8 43.2 14.4 57.6 9.6 14.4 25.6 22.4 44.8 22.4l1.6 0c6.4 0 11.2 4.8 11.2 11.2 0 6.4-4.8 11.2-11.2 11.2-51.2 0-81.6-38.4-81.6-99.2L200 296zM342.4 660.8l0-17.6c-17.6-4.8-32-20.8-32-41.6l0-132.8c0-14.4 4.8-27.2 14.4-38.4 8-11.2 20.8-17.6 35.2-20.8l25.6-4.8 30.4 60.8 30.4-62.4c-9.6 6.4-19.2 11.2-28.8 11.2-11.2 0-20.8-3.2-28.8-11.2-8-6.4-12.8-16-17.6-27.2-6.4-4.8-12.8-14.4-14.4-22.4-1.6-6.4 0-16 4.8-22.4 1.6 0 1.6-1.6 3.2-1.6 4.8-27.2 24-44.8 52.8-44.8 27.2 0 46.4 17.6 51.2 44.8 1.6 0 3.2 0 3.2 1.6 6.4 6.4 6.4 16 4.8 22.4-1.6 8-6.4 17.6-12.8 22.4-4.8 11.2-9.6 20.8-17.6 27.2l25.6 4.8c14.4 3.2 25.6 9.6 35.2 20.8 9.6 11.2 14.4 24 14.4 38.4l0 102.4 94.4-115.2c3.2-3.2 9.6-3.2 14.4 0 4.8 3.2 6.4 9.6 1.6 14.4l-1.6 1.6c0 1.6-1.6 3.2-3.2 4.8-3.2 3.2-8 9.6-12.8 16-8 11.2-22.4 27.2-38.4 48-24 28.8-46.4 57.6-54.4 67.2-1.6 19.2-14.4 33.6-32 38.4l0 16L342.4 660.8zM404.8 830.4 198.4 830.4l0-88c0-38.4 32-70.4 70.4-70.4L336 672c19.2 0 36.8 8 48 20.8 12.8 12.8 20.8 30.4 20.8 49.6L404.8 830.4zM617.6 830.4 411.2 830.4l0-88c0-38.4 32-70.4 70.4-70.4l67.2 0c38.4 0 70.4 32 68.8 70.4L617.6 830.4zM832 830.4 625.6 830.4l0-88c0-38.4 32-70.4 70.4-70.4l67.2 0c38.4 0 68.8 32 68.8 70.4L832 830.4zM452.8 347.2l-6.4 0 0-9.6c-1.6-12.8-6.4-32-30.4-32-22.4 0-28.8 17.6-30.4 32l0 9.6-6.4 0c0 0 0 1.6 0 3.2 0 4.8 3.2 8 4.8 9.6l6.4 0 1.6 4.8c4.8 16 14.4 27.2 25.6 27.2 9.6 0 20.8-9.6 25.6-27.2l1.6-4.8 3.2-1.6c1.6 0 4.8-4.8 4.8-8C452.8 348.8 452.8 348.8 452.8 347.2zM763.2 692.8l-67.2 0c-27.2 0-48 20.8-48 48l0 67.2 161.6 0 1.6 0 0-67.2C811.2 713.6 790.4 692.8 763.2 692.8z" fill="#ffffff"></path></g></g></svg>