<?xml version="1.0" standalone="no"?><!DOCTYPE svg PUBLIC "-//W3C//DTD SVG 1.1//EN" "http://www.w3.org/Graphics/SVG/1.1/DTD/svg11.dtd"><svg width="64" height="64" viewBox="0 0 64 64" version="1.1" xmlns="http://www.w3.org/2000/svg" xmlns:xlink="http://www.w3.org/1999/xlink"><defs><style type="text/css"><![CDATA[
@font-face {
  font-family: "ifont";
  src: url("//at.alicdn.com/t/font_1442373896_4754455.eot?#iefix") format("embedded-opentype"), url("//at.alicdn.com/t/font_1442373896_4754455.woff") format("woff"), url("//at.alicdn.com/t/font_1442373896_4754455.ttf") format("truetype"), url("//at.alicdn.com/t/font_1442373896_4754455.svg#ifont") format("svg");
}

]]></style></defs><g class="transform-group"><g transform="scale(0.0625, 0.0625)"><path d="M512 0C229.2224 0 0 229.2224 0 512c0 282.7648 229.2224 512 512 512 282.7648 0 512-229.2352 512-512C1024 229.2224 794.7648 0 512 0zM194.112 340.4928c0 0-2.2016-21.1712 16.5376-17.8304 0 0 47.3984 81.2544 104.7296 56.7808 0 0 57.344-25.6128 66.1376-92.4416 0 0 11.0336-18.9312-58.432-76.8128 0 0-6.6048-25.6128 26.4576-16.6912 0 0 177.4976 55.6416 115.7504 198.1696l58.4448 59.0336-76.0832 76.8128-56.2304-56.8192C391.4368 470.6944 240.4224 546.4448 194.112 340.4928zM744.2304 844.8 568.9472 656.6272l77.1584-77.9136 184.1152 179.2384L744.2304 844.8zM805.9648 615.424l-34.176-34.4704c3.3152-109.12-44.0832-130.2528-44.0832-130.2528-16.5376-14.4768-26.4832 1.1008-26.4832 1.1008L523.7504 629.9008l-3.3152 30.0544L346.2528 842.56c-41.9072 1.1392-61.7472-23.3728-61.7472-23.3728-30.8864-26.7136-18.7392-70.1312-18.7392-70.1312L443.264 569.8176l29.7728 4.4416L628.48 416.1536c36.3776-85.7472-67.264-90.1376-67.264-90.1376l-41.8816-42.3424 86.0032-86.848 47.3984 47.8848c-4.416 62.336 55.1168 55.6928 55.1168 55.6928 120.1792 90.1504 121.2672 158.0672 121.2672 158.0672C842.3424 530.8672 805.9648 615.424 805.9648 615.424zM766.2592 785.2416 779.8784 742.8992 744.2304 716.7488 708.5952 742.8992 722.1888 785.2416Z" fill="#fff"></path></g></g></svg>