<?xml version="1.0" standalone="no"?><!DOCTYPE svg PUBLIC "-//W3C//DTD SVG 1.1//EN" "http://www.w3.org/Graphics/SVG/1.1/DTD/svg11.dtd"><svg width="32" height="32" viewBox="0 0 32 32" version="1.1" xmlns="http://www.w3.org/2000/svg" xmlns:xlink="http://www.w3.org/1999/xlink"><defs><style type="text/css"><![CDATA[
@font-face {
  font-family: "ifont";
  src: url("//at.alicdn.com/t/font_1442373896_4754455.eot?#iefix") format("embedded-opentype"), url("//at.alicdn.com/t/font_1442373896_4754455.woff") format("woff"), url("//at.alicdn.com/t/font_1442373896_4754455.ttf") format("truetype"), url("//at.alicdn.com/t/font_1442373896_4754455.svg#ifont") format("svg");
}

]]></style></defs><g class="transform-group"><g transform="scale(0.03125, 0.03125)"><path d="M302.74763 689.485205c-7.157208 0-12.959739-5.802531-12.959739-12.959739L289.787891 296.041981c0-7.157208 5.802531-12.959739 12.959739-12.959739s12.959739 5.802531 12.959739 12.959739l0 380.483485C315.707369 683.682674 309.904838 689.485205 302.74763 689.485205zM451.129867 689.485205c-7.157208 0-12.959739-5.802531-12.959739-12.959739L438.170128 354.42854c0-7.157208 5.802531-12.959739 12.959739-12.959739 7.157208 0 12.959739 5.802531 12.959739 12.959739l0 322.096926C464.112184 683.682674 458.309653 689.485205 451.129867 689.485205zM595.019094 689.485205c-7.157208 0-12.959739-5.802531-12.959739-12.959739L582.059355 387.008511c0-7.157208 5.802531-12.959739 12.959739-12.959739s12.959739 5.802531 12.959739 12.959739l0 289.494378C607.978833 683.682674 602.176302 689.485205 595.019094 689.485205zM725.3164 689.485205c-7.157208 0-12.959739-5.802531-12.959739-12.959739L712.356661 296.041981c0-7.157208 5.802531-12.959739 12.959739-12.959739 7.157208 0 12.959739 5.802531 12.959739 12.959739l0 380.483485C738.276139 683.682674 732.473608 689.485205 725.3164 689.485205zM961.436522 935.810557 59.876703 935.810557c-11.198659 0-20.320148-9.121489-20.320148-20.320148l0-132.351898c0-11.198659 9.121489-20.320148 20.320148-20.320148l901.53724 0c11.198659 0 20.320148 9.121489 20.320148 20.320148l0 132.351898C981.75667 926.689068 972.635181 935.810557 961.436522 935.810557zM65.498611 909.868501l890.316003 0 0-121.108083L65.498611 788.760418 65.498611 909.868501zM214.038894 483.664682c0 7.044318-5.757375 12.801693-12.801693 12.801693L34.092693 496.466376c-7.044318 0-9.43758-4.673634-5.328394-10.385854l17.972042-24.993782c4.109186-5.712219 10.679367-15.172377 14.585351-21.020064 0 0 167.212241-249.870089 228.330732-334.605106 17.99462-24.948626 38.156723-34.657142 65.634079-34.657142 79.045376 0 237.113551 0 316.13635 0 26.890329 0 48.339375 12.282401 65.634079 37.52454 49.468272 72.271994 172.630948 252.150461 232.259294 339.256163 20.433038 29.825462 26.167835 38.201879 26.167835 38.201879 3.973718 5.802531 1.467566 10.566477-5.576752 10.566477l-7.631345 0c-7.044318 0-18.559069 0-25.603387 0l-134.587115 0c-7.044318 0-12.801693-5.757375-12.801693-12.801693l0-0.338669c0-7.044318 5.757375-12.801693 12.801693-12.801693l118.376152 0c7.044318 0 9.55047-4.763946 5.576752-10.566477 0 0-170.96018-250.028134-230.385324-336.862901-12.417868-18.130088-26.054946-26.235569-44.230189-26.235569-79.045376 0-237.113551 0-316.13635 0-19.236407 0-31.789743 6.1412-44.614014 23.887463C248.696036 206.475283 79.022798 459.890109 79.022798 459.890109c-3.905984 5.847687-1.354677 10.634211 5.667064 10.634211l116.547339 0c7.044318 0 12.801693 5.757375 12.801693 12.801693L214.038894 483.664682z" fill="#999"></path></g></g></svg>