<?xml version="1.0" standalone="no"?><!DOCTYPE svg PUBLIC "-//W3C//DTD SVG 1.1//EN" "http://www.w3.org/Graphics/SVG/1.1/DTD/svg11.dtd"><svg width="32" height="32" viewBox="0 0 32 32" version="1.1" xmlns="http://www.w3.org/2000/svg" xmlns:xlink="http://www.w3.org/1999/xlink"><defs><style type="text/css"><![CDATA[
@font-face {
  font-family: "ifont";
  src: url("//at.alicdn.com/t/font_1442373896_4754455.eot?#iefix") format("embedded-opentype"), url("//at.alicdn.com/t/font_1442373896_4754455.woff") format("woff"), url("//at.alicdn.com/t/font_1442373896_4754455.ttf") format("truetype"), url("//at.alicdn.com/t/font_1442373896_4754455.svg#ifont") format("svg");
}

]]></style></defs><g class="transform-group"><g transform="scale(0.03125, 0.03125)"><path d="M369.76402 224.908376c21.778003-56.879452 83.821057-95.951329 145.062863-94.148263 60.335157 1.77646 119.892601 43.62252 139.372258 95.003747 39.251979 103.531981 6.256494 213.894532-59.446927 286.141996-19.12457 21.027919-24.514323 40.202631-22.542412 56.81703 1.38965 11.713786 9.733689 61.658292 66.909899 68.12354s205.007117 65.13344 246.609631 141.855822c43.802622 80.778768-84.762499 114.542756-379.721301 114.342188-290.144146-0.197498-412.145781-39.250956-366.636285-115.480104 50.359968-84.353177 191.978383-131.932822 247.593028-141.058666 55.614645-9.123798 62.396095-52.918233 64.0999-63.742766 2.686179-17.054421-1.971911-37.46631-21.001313-60.85909C368.057145 435.675684 326.529333 337.830215 369.76402 224.908376zM331.640748 378.930285c29.439496 136.101771 95.997378 141.220349 92.583628 187.015348s-31.464619 34.958186-91.303472 56.602136c-59.838853 21.647019-170.660868 60.58689-215.727273 142.503575s5.814426 153.594167 388.143111 154.449651c382.327662 0.853437 449.643813-63.145156 401.576051-154.449651-48.065715-91.304496-170.378435-132.545782-216.45689-142.075833-46.077432-9.530051-91.554182-19.10308-93.863784-57.028854-2.309602-37.924751 67.411319-61.152778 94.717222-186.589652 4.267187-38.397518 16.213263-110.928439-17.920138-173.504636-34.131355-62.575174-91.264587-99.392708-158.260443-101.290941-68.003813-1.928932-136.128377 38.430264-165.42461 100.724029C320.405869 267.575128 322.680678 337.543689 331.640748 378.930285z" fill="#999"></path></g></g></svg>