<?xml version="1.0" standalone="no"?><!DOCTYPE svg PUBLIC "-//W3C//DTD SVG 1.1//EN" "http://www.w3.org/Graphics/SVG/1.1/DTD/svg11.dtd"><svg width="64" height="64" viewBox="0 0 64 64" version="1.1" xmlns="http://www.w3.org/2000/svg" xmlns:xlink="http://www.w3.org/1999/xlink"><defs><style type="text/css"><![CDATA[
@font-face {
  font-family: "ifont";
  src: url("//at.alicdn.com/t/font_1442373896_4754455.eot?#iefix") format("embedded-opentype"), url("//at.alicdn.com/t/font_1442373896_4754455.woff") format("woff"), url("//at.alicdn.com/t/font_1442373896_4754455.ttf") format("truetype"), url("//at.alicdn.com/t/font_1442373896_4754455.svg#ifont") format("svg");
}

]]></style></defs><g class="transform-group"><g transform="scale(0.0625, 0.0625)"><path d="M794.729781 1004.940922 127.174959 1004.940922c-43.062771 0-78.035284-34.971489-78.035284-78.098729L49.139675 170.06735c0-42.938951 34.972513-78.035284 78.035284-78.035284l541.323862 0c12.667507 0 22.918989 10.31902 22.918989 22.924105 0 12.727882-10.252505 22.918989-22.918989 22.918989L127.174959 137.875161c-17.790178 0-32.187073 14.459317-32.187073 32.19219L94.987886 926.842193c0 17.730826 14.396895 32.18912 32.187073 32.18912l667.554822 0c17.668405 0 32.0653-14.394848 32.0653-32.18912L826.795081 319.223439c0-12.666484 10.31902-22.924105 22.985504-22.924105s22.923082 10.257621 22.923082 22.924105L872.703667 926.842193C872.703667 969.969433 837.670779 1004.940922 794.729781 1004.940922L794.729781 1004.940922zM443.465602 436.310134 200.269721 436.310134c-12.666484 0-22.924105-10.320043-22.924105-22.924105 0-12.727882 10.257621-22.985504 22.924105-22.985504l243.195881 0c12.666484 0 22.985504 10.257621 22.985504 22.985504C466.452129 425.990091 456.194508 436.310134 443.465602 436.310134L443.465602 436.310134zM652.371516 654.231375 200.332143 654.231375c-12.666484 0-22.918989-10.193153-22.918989-22.922059 0-12.599969 10.253528-22.857591 22.918989-22.857591L652.371516 608.451726c12.667507 0 22.981411 10.257621 22.981411 22.857591C675.352927 644.038222 665.039024 654.231375 652.371516 654.231375L652.371516 654.231375zM567.472917 436.310134c-5.868661 0-11.675924-2.225691-16.187681-6.736425-8.956999-8.956999-8.956999-23.475667 0-32.375362L925.285233 23.136953c9.021467-9.018398 23.479761-9.018398 32.43676 0 9.021467 8.900717 9.021467 23.480784 0 32.441876L583.721996 429.573709C579.214333 434.084443 573.408093 436.310134 567.472917 436.310134L567.472917 436.310134zM567.472917 436.310134" fill="#56abe4"></path></g></g></svg>