<?xml version="1.0" encoding="utf-8"?>
<!-- Generator: Adobe Illustrator 18.0.0, SVG Export Plug-In . SVG Version: 6.00 Build 0)  -->
<!DOCTYPE svg PUBLIC "-//W3C//DTD SVG 1.1//EN" "http://www.w3.org/Graphics/SVG/1.1/DTD/svg11.dtd">
<svg width="90" height="90" version="1.1" id="图层_1" xmlns="http://www.w3.org/2000/svg" xmlns:xlink="http://www.w3.org/1999/xlink" x="0px" y="0px"
	 viewBox="0 0 90 90" enable-background="new 0 0 90 90" xml:space="preserve">
<g display="none">
	<g transform="scale(0.0625, 0.0625)" display="inline">
		<path fill="#CBCBCB" d="M1396,1198.1h-98.9V406.7c0-36.4-29.5-65.9-65.9-65.9H967.3V142.9c0-54.6-11.3-98.9-66-98.9l-659.5,0
			c-54.6,0-98.9,44.3-98.9,98.9v1055.2H44c-18.2,0-33,14.7-33,33V1363c0,18.2,14.7,33,33,33H1396c18.2,0,32.9-14.8,32.9-33v-131.9
			C1428.9,1212.9,1414.2,1198.1,1396,1198.1z M505.7,1066.2c0,36.4-29.5,65.9-65.9,65.9h-65.9c-36.4,0-65.9-29.6-65.9-65.9v-65.9
			c0-36.5,29.5-65.9,65.9-65.9h65.9c36.4,0,65.9,29.5,65.9,65.9V1066.2z M505.7,736.5c0,36.4-29.5,65.9-65.9,65.9h-65.9
			c-36.4,0-65.9-29.6-65.9-65.9v-65.9c0-36.5,29.5-66,65.9-66h65.9c36.4,0,65.9,29.5,65.9,66V736.5z M505.7,406.7
			c0,36.4-29.5,65.9-65.9,65.9h-65.9c-36.4,0-65.9-29.5-65.9-65.9v-65.9c0-36.4,29.5-65.9,65.9-65.9h65.9
			c36.4,0,65.9,29.5,65.9,65.9V406.7z M802.5,1066.2c0,36.4-29.5,65.9-65.9,65.9h-65.9c-36.4,0-65.9-29.6-65.9-65.9v-65.9
			c0-36.5,29.5-65.9,65.9-65.9h65.9c36.4,0,65.9,29.5,65.9,65.9V1066.2z M802.5,736.5c0,36.4-29.5,65.9-65.9,65.9h-65.9
			c-36.4,0-65.9-29.6-65.9-65.9v-65.9c0-36.5,29.5-66,65.9-66h65.9c36.4,0,65.9,29.5,65.9,66V736.5z M802.5,406.7
			c0,36.4-29.5,65.9-65.9,65.9h-65.9c-36.4,0-65.9-29.5-65.9-65.9v-65.9c0-36.4,29.5-65.9,65.9-65.9h65.9
			c36.4,0,65.9,29.5,65.9,65.9V406.7z M1165.2,967.3c0,18.2-14.8,33-33,33h-65.9c-18.2,0-33-14.8-33-33v-65.9c0-18.2,14.8-33,33-33
			h65.9c18.2,0,33,14.7,33,33V967.3z M1165.2,703.5c0,18.2-14.8,33-33,33h-65.9c-18.2,0-33-14.8-33-33v-65.9c0-18.2,14.8-33,33-33
			h65.9c18.2,0,33,14.8,33,33V703.5z"/>
	</g>
</g>
<g display="none">
	<g transform="scale(0.0625, 0.0625)" display="inline">
		<path fill="#CBCBCB" d="M932.2,1399.3c-210.9,0-381.9-171.1-381.9-382.1c0-211,171-382.1,381.9-382.1S1314,806.2,1314,1017.2
			C1314,1228.2,1143.1,1399.3,932.2,1399.3L932.2,1399.3z M932.2,804.9C815,804.9,720,900,720,1017.2c0,117.2,95,212.3,212.2,212.3
			s212.2-95,212.2-212.3C1144.3,900,1049.3,804.9,932.2,804.9L932.2,804.9z M974.6,1144.5h-84.9v-84.9h-84.9v-84.9h84.9v-84.9h84.9
			v84.9h84.9v84.9h-84.9V1144.5L974.6,1144.5z M1144.3,491.8v111.6c-12.8-6.6-25.1-13.6-38.4-19C1130.4,557,1144.3,526,1144.3,491.8
			L1144.3,491.8z M1000.7,557.1c-22.5-3.3-45.1-6.9-68.6-6.9c-98.7,0-189.9,31-265.3,83.3c-10.7,0.4-20.9,1.6-31.8,1.6
			C353.9,635.1,126,521,126,380.3v-84.9c0-140.7,227.9-254.7,509.2-254.7c281.2,0,509.2,114.1,509.2,254.7v84.9
			C1144.3,449.1,1089.3,511.3,1000.7,557.1L1000.7,557.1z M576.7,717.7c-39.3,46.6-69.1,100.6-87.8,160.2
			C279.5,846.3,126,750.2,126,635.1V491.8C126,622.5,323.4,706.3,576.7,717.7L576.7,717.7z M470.8,963.1c-2.1,18-5.4,35.6-5.4,54.1
			c0,39.6,6.4,77.5,15.7,114.2C275.7,1098.6,126,1003.5,126,889.8V746.5C126,858.3,270.7,935.6,470.8,963.1L470.8,963.1z
			 M515.3,1223.3c34.5,69.8,85,129.9,148,174.6c-9.5,0.3-18.5,1.4-28.1,1.4c-281.2,0-509.2-114.1-509.2-254.7v-143.3
			C126,1121.2,292.2,1201.9,515.3,1223.3L515.3,1223.3z"/>
	</g>
</g>
<g>
	<g transform="scale(0.125, 0.125)">
		<path fill="#CBCBCB" d="M360,20.3C172.4,20.3,20.2,172.3,20.2,360c0,187.6,152.1,339.7,339.8,339.7
			c187.6,0,339.7-152.1,339.7-339.7C699.8,172.3,547.6,20.3,360,20.3L360,20.3z M529.9,397.5H349.5c-3.8,0-7.5-0.8-10.8-2.2
			c-10-4.2-17-14.1-17-25.6V189.3c0-15.4,12.5-27.9,27.8-27.9c15.4,0,27.9,12.5,27.9,27.9v152.5h152.5c15.4,0,27.9,12.5,27.9,27.9
			C557.8,385,545.3,397.5,529.9,397.5L529.9,397.5z"/>
	</g>
</g>
</svg>
