<?xml version="1.0" encoding="utf-8"?>
<!-- Generator: Adobe Illustrator 18.0.0, SVG Export Plug-In . SVG Version: 6.00 Build 0)  -->
<!DOCTYPE svg PUBLIC "-//W3C//DTD SVG 1.1//EN" "http://www.w3.org/Graphics/SVG/1.1/DTD/svg11.dtd">
<svg version="1.1" id="图层_1" xmlns="http://www.w3.org/2000/svg" xmlns:xlink="http://www.w3.org/1999/xlink" x="0px" y="0px"
	 viewBox="13 13 64 64" enable-background="new 13 13 64 64" xml:space="preserve">
<g>
	
		<linearGradient id="SVGID_1_" gradientUnits="userSpaceOnUse" x1="243.4584" y1="42.6514" x2="1210.0243" y2="-900.9506" gradientTransform="matrix(5.625000e-002 0 0 -5.625000e-002 0 23.0625)">
		<stop  offset="0" style="stop-color:#07F0D7"/>
		<stop  offset="1" style="stop-color:#4B8BCD"/>
	</linearGradient>
	<rect x="29.2" y="47.4" fill="url(#SVGID_1_)" width="27.7" height="3.8"/>
	
		<linearGradient id="SVGID_2_" gradientUnits="userSpaceOnUse" x1="556.494" y1="363.3051" x2="1523.0599" y2="-580.2969" gradientTransform="matrix(5.625000e-002 0 0 -5.625000e-002 0 23.0625)">
		<stop  offset="0" style="stop-color:#07F0D7"/>
		<stop  offset="1" style="stop-color:#4B8BCD"/>
	</linearGradient>
	<polygon fill="url(#SVGID_2_)" points="48.2,42.1 52,41.3 72.8,20.5 70.2,17.7 49.5,38.5 	"/>
	
		<linearGradient id="SVGID_3_" gradientUnits="userSpaceOnUse" x1="237.7211" y1="36.7743" x2="1204.287" y2="-906.8278" gradientTransform="matrix(5.625000e-002 0 0 -5.625000e-002 0 23.0625)">
		<stop  offset="0" style="stop-color:#07F0D7"/>
		<stop  offset="1" style="stop-color:#4B8BCD"/>
	</linearGradient>
	<path fill="url(#SVGID_3_)" d="M67.9,68.9H20.5V24.9h36.4v-3.6H19.5c-1.3,0-2.3,0.8-2.3,2V70c0,1.3,1,2.3,2.3,2.3h49.2
		c1.3,0,2.3-1,2.3-2.3V31h-3.1V68.9z"/>
	
		<linearGradient id="SVGID_4_" gradientUnits="userSpaceOnUse" x1="286.9163" y1="87.1669" x2="1253.4822" y2="-856.4352" gradientTransform="matrix(5.625000e-002 0 0 -5.625000e-002 0 23.0625)">
		<stop  offset="0" style="stop-color:#07F0D7"/>
		<stop  offset="1" style="stop-color:#4B8BCD"/>
	</linearGradient>
	<polygon fill="url(#SVGID_4_)" points="44.1,36.7 29.2,36.7 29.2,36.7 29.2,39.7 44.1,39.7 	"/>
</g>
</svg>
