<?xml version="1.0" standalone="no"?><!DOCTYPE svg PUBLIC "-//W3C//DTD SVG 1.1//EN" "http://www.w3.org/Graphics/SVG/1.1/DTD/svg11.dtd"><svg width="64" height="64" viewBox="0 0 64 64" version="1.1" xmlns="http://www.w3.org/2000/svg" xmlns:xlink="http://www.w3.org/1999/xlink"><defs><style type="text/css"><![CDATA[
@font-face {
  font-family: "ifont";
  src: url("//at.alicdn.com/t/font_1442373896_4754455.eot?#iefix") format("embedded-opentype"), url("//at.alicdn.com/t/font_1442373896_4754455.woff") format("woff"), url("//at.alicdn.com/t/font_1442373896_4754455.ttf") format("truetype"), url("//at.alicdn.com/t/font_1442373896_4754455.svg#ifont") format("svg");
}

]]></style></defs><g class="transform-group"><g transform="scale(0.0625, 0.0625)"><path d="M378.462123 462.130196l-97.495498 0c1.938142 38.635949 12.786211 74.948993 30.473035 106.9795l82.792635 0C384.83425 534.971178 379.44245 499.019361 378.462123 462.130196zM326.740134 593.31805c29.195949 40.853453 70.475098 72.544223 118.595049 89.721441-18.113543-27.471678-32.755008-57.645908-43.707454-89.721441L326.740134 593.31805zM482.438219 693.052542c10.909467 2.068102 22.075785 3.41068 33.456996 4.006244L515.895215 593.31805l-88.503706 0C440.732351 629.845988 459.187679 663.580301 482.438219 693.052542zM427.496909 305.666678l88.398306 0L515.895215 202.181769c-11.380188 0.596588-22.546505 1.939165-33.480532 4.006244C459.229634 235.57532 440.817286 269.225721 427.496909 305.666678zM567.446311 204.952882c-8.717546-1.38658-17.561981-2.302439-26.533306-2.749624l0 103.46342 82.431408 0C609.832677 268.714068 591.079568 234.637971 567.446311 204.952882zM515.893168 329.876056l-96.40977 0c-10.016121 34.032094-15.748682 70.091358-16.791431 107.234303l113.201202 0L515.893168 329.876056zM445.313693 216.225623c-48.013527 17.133216-89.206718 48.716538-118.381178 89.441055l74.7781 0C412.644643 273.67915 427.263595 243.588831 445.313693 216.225623zM419.419953 569.109696l96.473215 0L515.893168 462.130196 402.691967 462.130196C403.735739 499.168764 409.447834 535.161512 419.419953 569.109696zM394.316206 329.877079l-82.728166 0c-17.772782 32.07144-28.684296 68.490907-30.623461 107.234303l97.495498 0C379.441427 400.116817 384.854717 364.080066 394.316206 329.877079zM540.913005 593.31805l0 103.72027c8.972349-0.448208 17.816784-1.364067 26.510794-2.728134 23.697725-29.771047 42.493813-63.952544 56.004525-100.992135L540.913005 593.31805zM603.737866 213.583446c18.859533 28.087709 34.05256 59.074444 45.328371 92.083232l80.852446 0C699.166285 262.747169 655.074068 230.013651 603.737866 213.583446zM672.358733 437.110359l103.484909 0c-1.940189-38.742373-12.851703-75.16184-30.644951-107.234303L656.523069 329.876056C665.943626 364.079042 671.355893 400.115793 672.358733 437.110359zM525.473361 51.172473c-219.267912 0-397.020292 177.75238-397.020292 397.021316 0 219.267912 177.751357 397.020292 397.020292 397.020292S922.493653 667.461701 922.493653 448.192765C922.493653 228.92383 744.741273 51.172473 525.473361 51.172473zM528.40411 722.419384c-150.432151 0-272.799106-122.387421-272.799106-272.798083 0-150.432151 122.366955-272.799106 272.799106-272.799106 150.433174 0 272.799106 122.366955 272.799106 272.799106C801.203216 600.031962 678.837284 722.419384 528.40411 722.419384zM656.588561 569.109696l88.759533 0c17.709337-32.030507 28.555359-68.343551 30.495548-106.9795L672.358733 462.130196C671.356916 499.019361 665.985582 534.971178 656.588561 569.109696zM631.335411 329.877079l-90.421382 0 0 107.234303 107.212814 0C647.081023 399.967414 641.329019 363.909174 631.335411 329.877079zM648.126842 462.130196 540.913005 462.130196l0 106.9795 90.484827 0C641.350508 535.161512 647.082046 499.168764 648.126842 462.130196zM603.737866 685.658132c51.42216-16.451694 95.599312-49.312102 126.350686-92.340081l-80.93738 0C637.854894 626.414843 622.640378 657.506978 603.737866 685.658132z" fill="#fff"></path></g></g></svg>