<?xml version="1.0" standalone="no"?><!DOCTYPE svg PUBLIC "-//W3C//DTD SVG 1.1//EN" "http://www.w3.org/Graphics/SVG/1.1/DTD/svg11.dtd"><svg width="64" height="64" viewBox="0 0 64 64" version="1.1" xmlns="http://www.w3.org/2000/svg" xmlns:xlink="http://www.w3.org/1999/xlink"><defs><style type="text/css"><![CDATA[
@font-face {
  font-family: "ifont";
  src: url("//at.alicdn.com/t/font_1442373896_4754455.eot?#iefix") format("embedded-opentype"), url("//at.alicdn.com/t/font_1442373896_4754455.woff") format("woff"), url("//at.alicdn.com/t/font_1442373896_4754455.ttf") format("truetype"), url("//at.alicdn.com/t/font_1442373896_4754455.svg#ifont") format("svg");
}

]]></style></defs><g class="transform-group"><g transform="scale(0.0625, 0.0625)"><path d="M514.3 373.8c18.5 0 33.4-14.5 33.4-32.3 0-17.9-14.9-32.3-33.4-32.3-18.5 0-33.4 14.5-33.4 32.3C480.9 359.3 495.9 373.8 514.3 373.8zM512 16c-273.5 0-496 222.5-496 496s222.5 496 496 496 496-222.5 496-496S785.5 16 512 16zM279 385.7C290.8 378.3 510 249.2 510 249.2c2.8-0.8 5.9-0.8 8.7 0 0 0 220.5 130.4 230.9 136.5 10.4 6.2 11.1 13.5 10 19.7-1.1 6.3-7.2 10.9-14.4 10.9L283.3 416.3c-7.1 0-13.2-4.6-14.3-10.9C267.9 399.3 267.1 393.2 279 385.7zM327 476.7c-7.8 0-14.3-6.2-14.3-13.8l0-0.6c0-7.5 6.4-13.7 17.1-13.7l71.9 0c5 0 11.3 6.2 11.3 13.7l0 0.6c0 7.6-6.4 13.8-14.2 13.8L394 476.7 394 616l4.9 0c7.9 0 14.2 6.2 14.2 13.7l0 0.7c0 7.6-6.4 13.7-14.2 13.7l-69 0c-7.8 0-17.1-6.2-17.1-13.7l0-0.7c0-7.5 6.4-13.7 14.3-13.7l3.1 0L330.2 476.7 327 476.7zM738.4 674.3c8.2 0 14.8 7.3 14.8 16.3l0 0.8c0 9-6.6 16.4-14.8 16.4L290.2 707.8c-8.1 0-14.8-7.4-14.8-16.4l0-0.8c0-9 6.7-16.3 14.8-16.3L738.4 674.3zM478.4 476.7c-7.8 0-14.3-6.2-14.3-13.8l0-0.6c0-7.5 6.4-13.7 17.1-13.7l71.9 0c5 0 11.4 6.2 11.4 13.7l0 0.6c0 7.6-6.4 13.8-14.3 13.8l-4.8 0L545.4 616l4.8 0c7.9 0 14.3 6.2 14.3 13.7l0 0.7c0 7.6-6.4 13.7-14.3 13.7l-69 0c-7.8 0-17.1-6.2-17.1-13.7l0-0.7c0-7.5 6.4-13.7 14.3-13.7l3.1 0L481.5 476.7 478.4 476.7zM629.8 476.7c-7.8 0-14.3-6.2-14.3-13.8l0-0.6c0-7.5 6.4-13.7 17.1-13.7l71.9 0c5 0 11.4 6.2 11.4 13.7l0 0.6c0 7.6-6.4 13.8-14.3 13.8l-4.8 0L696.8 616l4.8 0c7.9 0 14.3 6.2 14.3 13.7l0 0.7c0 7.6-6.4 13.7-14.3 13.7l-69 0c-7.8 0-17.1-6.2-17.1-13.7l0-0.7c0-7.5 6.4-13.7 14.3-13.7l3.1 0L632.9 476.7 629.8 476.7zM771.3 756.6c0 9-6.6 16.3-14.8 16.3L272.1 772.9c-8.1 0-14.8-7.3-14.8-16.3l0-0.8c0-9 6.7-16.3 14.8-16.3l484.5 0c8.1 0 14.8 7.3 14.8 16.3L771.4 756.6z" fill="#fff"></path></g></g></svg>